<svg width="16" height="16" viewBox="0 0 16 16" fill="none" xmlns="http://www.w3.org/2000/svg">
<path d="M11.6534 5.05363L12.0069 4.70007L11.2998 3.99297L10.9463 4.34652L11.6534 5.05363ZM4.34659 10.9462L3.99303 11.2997L4.70014 12.0068L5.05369 11.6533L4.34659 10.9462ZM10.9463 4.34652L4.34659 10.9462L5.05369 11.6533L11.6534 5.05363L10.9463 4.34652Z" fill="#92AE59"/>
<path d="M5.05375 4.34658L4.7002 3.99303L3.99309 4.70013L4.34664 5.05369L5.05375 4.34658ZM10.9463 11.6534L11.2999 12.0069L12.007 11.2998L11.6534 10.9462L10.9463 11.6534ZM4.34664 5.05369L10.9463 11.6534L11.6534 10.9462L5.05375 4.34658L4.34664 5.05369Z" fill="#92AE59"/>
</svg>
