<svg width="14" height="14" viewBox="0 0 14 14" fill="none" xmlns="http://www.w3.org/2000/svg">
<path d="M2.36261 13.2116L11.7947 3.78811L10.2819 2.26652L0.841019 11.6986L0.0197035 13.618C-0.0206418 13.7217 0.000971792 13.8182 0.0845442 13.9075C0.168116 13.9969 0.261775 14.0214 0.365521 13.9811L2.36261 13.2116ZM12.5556 3.04461L13.4287 2.18871C13.6477 1.96393 13.763 1.73914 13.7746 1.51436C13.7861 1.28958 13.6939 1.07633 13.4979 0.874602L13.2039 0.580658C13.008 0.384695 12.7962 0.295359 12.5686 0.31265C12.3409 0.32994 12.1175 0.445213 11.8985 0.658467L11.0253 1.52301L12.5556 3.04461Z" fill="#007AFF"/>
</svg>
