<svg width="16" height="19" viewBox="0 0 16 19" fill="none" xmlns="http://www.w3.org/2000/svg">
<path d="M4.2834 18.2915H11.7247C12.9717 18.2915 13.7733 17.5385 13.8381 16.2915L14.3806 4.63158H15.2713C15.6842 4.63158 16 4.30769 16 3.90283C16 3.49798 15.6761 3.19028 15.2713 3.19028H11.6761V1.97571C11.6761 0.728745 10.8826 0 9.53036 0H6.45344C5.10121 0 4.30769 0.728745 4.30769 1.97571V3.19028H0.728745C0.323887 3.19028 0 3.50607 0 3.90283C0 4.31579 0.323887 4.63158 0.728745 4.63158H1.61943L2.16194 16.2915C2.22672 17.5466 3.02024 18.2915 4.2834 18.2915ZM5.82186 2.04858C5.82186 1.63563 6.11336 1.36842 6.5587 1.36842H9.4251C9.87045 1.36842 10.1619 1.63563 10.1619 2.04858V3.19028H5.82186V2.04858ZM4.44534 16.8421C4 16.8421 3.67611 16.5101 3.65182 16.0324L3.10931 4.63158H12.8664L12.3401 16.0324C12.3239 16.5182 12.0081 16.8421 11.5466 16.8421H4.44534ZM5.61134 15.5385C5.95951 15.5385 6.17814 15.3198 6.17004 14.996L5.92713 6.52632C5.91903 6.20243 5.69231 5.9919 5.36032 5.9919C5.02024 5.9919 4.80162 6.21053 4.80972 6.53441L5.05263 15.004C5.06073 15.3279 5.28745 15.5385 5.61134 15.5385ZM8 15.5385C8.34008 15.5385 8.5749 15.3279 8.5749 15.004V6.53441C8.5749 6.21053 8.34008 5.9919 8 5.9919C7.65992 5.9919 7.4332 6.21053 7.4332 6.53441V15.004C7.4332 15.3279 7.65992 15.5385 8 15.5385ZM10.3887 15.5466C10.7126 15.5466 10.9393 15.3279 10.9474 15.004L11.1903 6.53441C11.1984 6.21053 10.9798 6 10.6397 6C10.3077 6 10.081 6.21053 10.0729 6.53441L9.82996 15.004C9.82186 15.3198 10.0405 15.5466 10.3887 15.5466Z" fill="#FF3B30"/>
</svg>
